<svg id="visual" viewBox="0 0 900 200" width="900" height="200" xmlns="http://www.w3.org/2000/svg" xmlns:xlink="http://www.w3.org/1999/xlink" version="1.1"><rect x="0" y="0" width="900" height="200" fill="#F3FEB0"></rect><path d="M0 162L16.7 160.3C33.3 158.7 66.7 155.3 100 151.5C133.3 147.7 166.7 143.3 200 143.8C233.3 144.3 266.7 149.7 300 150.3C333.3 151 366.7 147 400 146C433.3 145 466.7 147 500 147.8C533.3 148.7 566.7 148.3 600 150C633.3 151.7 666.7 155.3 700 154.5C733.3 153.7 766.7 148.3 800 146.5C833.3 144.7 866.7 146.3 883.3 147.2L900 148L900 201L883.3 201C866.7 201 833.3 201 800 201C766.7 201 733.3 201 700 201C666.7 201 633.3 201 600 201C566.7 201 533.3 201 500 201C466.7 201 433.3 201 400 201C366.7 201 333.3 201 300 201C266.7 201 233.3 201 200 201C166.7 201 133.3 201 100 201C66.7 201 33.3 201 16.7 201L0 201Z" fill="#fff92e"></path><path d="M0 171L16.7 171.8C33.3 172.7 66.7 174.3 100 174.3C133.3 174.3 166.7 172.7 200 172.3C233.3 172 266.7 173 300 171.2C333.3 169.3 366.7 164.7 400 164.7C433.3 164.7 466.7 169.3 500 171.3C533.3 173.3 566.7 172.7 600 170C633.3 167.3 666.7 162.7 700 160.8C733.3 159 766.7 160 800 160.2C833.3 160.3 866.7 159.7 883.3 159.3L900 159L900 201L883.3 201C866.7 201 833.3 201 800 201C766.7 201 733.3 201 700 201C666.7 201 633.3 201 600 201C566.7 201 533.3 201 500 201C466.7 201 433.3 201 400 201C366.7 201 333.3 201 300 201C266.7 201 233.3 201 200 201C166.7 201 133.3 201 100 201C66.7 201 33.3 201 16.7 201L0 201Z" fill="#ffcd32"></path><path d="M0 171L16.7 170.8C33.3 170.7 66.7 170.3 100 173.2C133.3 176 166.7 182 200 184C233.3 186 266.7 184 300 184C333.3 184 366.7 186 400 187C433.3 188 466.7 188 500 186C533.3 184 566.7 180 600 178C633.3 176 666.7 176 700 176.8C733.3 177.7 766.7 179.3 800 181.3C833.3 183.3 866.7 185.7 883.3 186.8L900 188L900 201L883.3 201C866.7 201 833.3 201 800 201C766.7 201 733.3 201 700 201C666.7 201 633.3 201 600 201C566.7 201 533.3 201 500 201C466.7 201 433.3 201 400 201C366.7 201 333.3 201 300 201C266.7 201 233.3 201 200 201C166.7 201 133.3 201 100 201C66.7 201 33.3 201 16.7 201L0 201Z" fill="#fea443"></path></svg>